<svg version="1" xmlns="http://www.w3.org/2000/svg" width="1130.667" height="1130.667" viewBox="0 0 848.000000 848.000000"><path d="M191 7.3c-14.5 10.9-33.5 25-36 26.7-1.2.8-3.4 2.5-4.8 3.7-1.5 1.3-3 2.3-3.3 2.3-.3 0-1.6.8-2.8 1.9-1.2 1-3.7 2.9-5.6 4.2-1.9 1.3-3.5 2.7-3.5 3.1 0 .5-.4.8-1 .8-.8 0-8.7 5.5-10.9 7.6-.8.8 5.3 4.7 19.1 12.3 6.9 3.8 8.3 4.6 8.8 5.1.3.3 3.1 1.9 6.2 3.5 3.2 1.7 5.8 3.3 5.8 3.7 0 .5.4.8.9.8.7 0 15.2 8.2 45.1 25.5 3 1.8 7.1 4.1 9 5.1 1.9 1 3.7 2.1 4 2.5.3.3 3.2 2 6.5 3.9 10.5 5.8 14.7 8.2 28 16 16.4 9.6 19 11.1 21.5 12.3 1.4.6 2.7 1.4 3 1.7.3.3 2.5 1.6 5 2.9 2.5 1.4 5.1 3.1 5.8 3.8.7.7 1.7 1.3 2.2 1.3.5 0 4.3 2 8.3 4.5 4.1 2.5 7.8 4.5 8.1 4.5.4 0 2.7 1.3 5.1 3 2.4 1.6 4.8 3 5.4 3 .6 0 1.1.3 1.1.8 0 .4 1.5 1.4 3.3 2.1 1.7.8 4.8 2.4 6.7 3.6 6.4 4 33.5 19.6 43 24.8 3 1.6 6.2 3.6 7 4.3.8.7 2.6 1.7 4 2.3 1.4.6 3.9 2 5.5 3.1 1.7 1 4.1 2.5 5.5 3.3 8.3 4.6 12.9 7.3 16.2 9.4 2.1 1.2 4.2 2.3 4.8 2.3.5 0 1 .5 1 1.2 0 .6.3.8.7.5.3-.4 1.3-.1 2.2.6 1.6 1.4 20 12.1 27.6 16.1 2.2 1.2 4.6 2.6 5.2 3.3.7.6 3.1 1.9 5.3 2.9 2.2 1 4 2.1 4 2.6 0 .4.5.8 1 .8.6 0 9 4.6 18.8 10.3 9.7 5.7 19.7 11.5 22.2 12.9 2.5 1.4 8.6 4.9 13.5 7.8 12.5 7.3 14.4 8.4 31 17.8 5 2.8 9.5 5.6 10.2 6.2.7.5 1.4 1 1.7 1 .4 0 5.1 2.7 21.1 12 1.7 1 6.4 3.7 10.5 6s7.6 4.4 7.8 4.5c.4.4-18.5 11.3-20.8 12-1.1.4-2 1.1-2 1.6s-.5.9-1.1.9c-.6 0-6 2.9-12 6.5-6.1 3.6-11.4 6.5-11.9 6.5s-1.5.6-2.2 1.2c-1.2 1.2-5.8 3.9-13.3 7.7-1.6.9-3.2 1.9-3.5 2.2-.3.3-3.2 2.1-6.5 3.9-9.2 5.1-11.8 6.6-36.1 20.5-12.4 7.1-23.8 13.7-25.3 14.5-1.4.8-5.3 3.1-8.6 5s-6.9 3.9-8 4.5c-7.6 4.3-11.8 6.7-15.4 8.9-2.2 1.4-4.3 2.6-4.6 2.6-.2 0-3.7 1.9-7.7 4.3s-8 4.6-8.8 5c-.8.4-3.3 1.8-5.5 3.2-2.2 1.4-4.7 2.8-5.5 3.2-1.8.8-30.3 17.3-30.9 17.9-.8.7-.6 110.4.2 110.4.4 0 2.4-1 4.5-2.3 2-1.3 4.4-2.7 5.2-3 .8-.4 2.9-1.5 4.5-2.6 2.7-1.6 5.5-3.3 12.6-7.3 1.3-.7 2.6-1.5 2.9-1.8.5-.5 7.5-4.3 11.7-6.4 1.3-.6 2.3-1.4 2.3-1.9 0-.4.5-.7 1.1-.7.6 0 4.1-1.7 7.7-3.9 3.7-2.1 8.3-4.8 10.3-5.9 7.5-4.1 8.4-4.7 8.9-5.2.3-.3 2.1-1.4 4-2.4s6.2-3.5 9.5-5.4c3.3-1.9 7.6-4.3 9.5-5.4 1.9-1 4.2-2.3 5-2.8 1.4-.9 42.8-24.7 57-32.8 12.1-6.8 21.7-12.4 23-13.2.8-.5 3.1-1.8 5-2.8 4.6-2.4 8.4-4.6 9-5.2.3-.3 1.4-1 2.5-1.6 5.4-2.9 12.4-6.9 28-15.9 9.4-5.4 18.4-10.6 20-11.5 1.7-1 5.4-3.1 8.3-4.9 2.9-1.7 5.7-3.1 6.1-3.1.5 0 1.4-.7 2.1-1.5.7-.8 1.6-1.3 2-1 .5.3 1 .1 1.2-.4.1-.4 3.5-2.5 7.3-4.6 3.9-2.1 7.2-4.1 7.5-4.4.3-.3 2.8-1.7 5.5-3.1 2.8-1.3 5.2-2.7 5.5-3.1.3-.3 3.7-2.3 7.5-4.4 3.9-2.1 8.1-4.6 9.5-5.5 1.4-1 2.7-1.8 3-1.7.3 0 2.3-1.1 4.5-2.5 2.2-1.3 4.7-2.8 5.5-3.2.8-.4 2.4-1.2 3.5-1.9s6.7-3.9 12.5-7.2c5.7-3.3 11.2-6.5 12.2-7 5.2-3 41.9-24.1 45.3-26 13.1-7.5 22.1-12.7 22.7-13.3.6-.6-19-12.6-25.6-15.7-1.2-.5-2.3-1.2-2.6-1.5-.3-.3-2.5-1.6-5-2.9-7.2-3.9-8.3-4.6-9.4-5.4-1.1-.7-22.8-13.3-44.6-25.8-5.8-3.3-11.2-6.4-12-7-6.8-4.2-31.3-17.9-32.1-17.9-.5 0-.9-.5-.9-1 0-.6-.5-1-1-1-.9 0-5.4-2.5-18-10-.8-.5-8.2-4.8-16.5-9.5-8.2-4.7-15.7-9-16.5-9.5-.8-.6-2.8-1.7-4.5-2.5-1.6-.9-3.7-2-4.5-2.5-.8-.5-6.2-3.7-12-7s-11.2-6.5-12-7c-1.6-1-8.7-5.1-16.5-9.5-2.7-1.5-9-5.1-14-8-4.9-2.9-10.8-6.3-13-7.5-2.2-1.3-5.3-3.1-7-4.1-1.6-1-4.1-2.4-5.5-3.2-1.4-.7-4.3-2.4-6.5-3.7-2.2-1.2-6-3.4-8.5-4.8s-8.9-5.2-14.3-8.4c-5.5-3.2-10-5.8-10.2-5.8-.1 0-6.3-3.6-13.8-7.9-7.4-4.3-15.4-9-17.8-10.3-2.4-1.4-11.5-6.6-20.2-11.6-8.7-5.1-16.2-9.2-16.8-9.2-.5 0-.9-.5-.9-1 0-.6-.4-1-.8-1-1 0-15.5-8.2-17.7-10-.8-.7-1.5-.9-1.5-.5 0 .5-.8.1-1.7-.7-1-.9-3.8-2.7-6.3-4-8.2-4.6-12.4-7-24.2-13.9-6.4-3.8-12.1-6.9-12.7-6.9-.6 0-1.1-.3-1.1-.8 0-.4-1.4-1.4-3.2-2.1-1.8-.8-5.1-2.7-7.4-4.3-2.3-1.5-4.5-2.8-4.8-2.8-.3 0-3.5-1.8-7.1-4-3.6-2.2-6.7-4-6.9-4-.3 0-4.1-2.2-8.5-5-4.5-2.7-8.1-4.6-8.1-4.3 0 .3-.8-.1-1.7-.9-1-.8-13.9-8.4-28.8-16.9-14.8-8.5-27.2-15.6-27.5-15.9-.3-.3-1.6-1.1-3-1.7-1.4-.7-4.3-2.4-6.5-3.8s-4.7-2.8-5.5-3.2c-.8-.4-3.5-1.9-6.1-3.3-6.6-3.9-13.9-8-14.2-7.9-.1 0-4.5 3.2-9.7 7.2z"/><path d="M59.1 292.2c-.1 103.6-.3 245.6-.4 315.5-.1 80.1.2 127.6.8 128.2.6.5 7.8 5.9 16 12 8.3 6.1 15.5 11.4 16 11.9.6.4 8.2 6.1 17 12.6s17.9 13.3 20.2 15c2.3 1.7 5.4 4 6.9 5.1 1.5 1.1 3.3 2.6 4 3.2.7.7 1.6 1.3 2.1 1.3.4 0 2.3 1.4 4.1 3.1 2.7 2.5 3.2 2.7 3.3 1.2 0-1 .3-85.3.5-187.3.3-102 .5-186.2.5-187v-26.8-26c.1-.4.1-1.2 0-1.7-.1-.6-.1-11.4-.1-24 .1-12.7.2-36.2.2-52.3 0-16 .2-29.2.5-29.2.2 0 15.3 8.6 33.6 19.2 18.3 10.5 34.8 20 36.7 21.1 1.9 1.1 4.9 2.8 6.5 3.8 1.7 1 3.9 2.3 5 2.9 1.1.6 4.3 2.4 7 4 2.8 1.6 7 4.1 9.5 5.5 2.5 1.4 5.2 3 6 3.5 1.5 1 28.4 16.5 35 20.2 3.5 2 33.5 19.4 36.8 21.3.9.6 4.1 2.4 7.1 4 3 1.7 6.1 3.5 7 4 .9.6 7.9 4.6 15.6 9 7.7 4.3 14.2 8.2 14.5 8.5.3.3 2.6 1.6 5.1 3l4.6 2.4 10.7-6.5c5.9-3.5 11.9-7 13.4-7.8 1.5-.8 2.9-1.8 3-2.3.2-.4.7-.8 1.2-.8.4 0 11.8-6.6 25.2-14.7 31.4-18.9 29.5-17.8 35.1-20.9 2.6-1.5 4.7-3 4.7-3.4 0-.4-1.8-1.5-4-2.6-2.2-1-4-2.2-4-2.7 0-.4-.4-.7-.9-.7s-6.9-3.5-14.2-7.8c-7.4-4.2-15.5-8.8-18.1-10.2-2.7-1.4-4.8-2.8-4.8-3.2 0-.5-.5-.8-1.1-.8-.6 0-4.9-2.3-9.7-5.1-9.8-5.8-13.7-8.1-20.2-11.7-2.5-1.3-6.5-3.7-9-5.2s-14.2-8.3-26-15c-11.8-6.8-31.2-18-43-24.8-11.8-6.9-24-13.9-27-15.5-3-1.7-7.3-4.2-9.5-5.6-2.2-1.4-4.2-2.6-4.5-2.6-.3 0-1.6-.8-3-1.6-1.4-.9-10.6-6.3-20.5-11.9-9.9-5.7-19.6-11.2-21.5-12.4-1.9-1.2-5.1-3-7.1-4.1-3.7-2.1-29.5-16.9-37.7-21.7-2.6-1.6-5.8-3.3-7.2-4-1.4-.7-2.7-1.5-3-1.8-.5-.5-1.6-1.2-8.9-5.2-5.5-3.1-29.3-16.9-32.1-18.7-1.4-.8-2.7-1.6-3-1.6-.4-.1-7.2-4-13-7.5-6.3-3.8-31.2-18-31.6-18-.3 0-2.9-1.5-5.7-3.4-2.9-1.8-6.4-4-7.9-4.7-1.5-.8-5.6-3.1-9.1-5.2-3.6-2-6.7-3.7-6.9-3.7-.3 0-.6 84.7-.7 188.2z"/><path d="M211.2 586.8c-.2 117.5-.4 224.2-.5 237-.2 18.2.1 23.2 1.1 23.2.7 0 3.1-1.2 5.5-2.7 2.3-1.4 4.4-2.6 4.7-2.6.3.1 1.7-.8 3.2-1.8 1.4-1 3.1-1.9 3.6-1.9.6 0 1.2-.4 1.4-.8.2-.5 3.9-2.8 8.3-5.3 10.2-5.6 7.9-4.3 34.3-19.5 12.5-7.3 24.3-14 26.2-15 1.9-1.1 4-2.5 4.8-3.2.7-.6 1.8-1.2 2.4-1.2.5 0 2.2-.8 3.6-1.9 1.5-1 4.7-2.9 7.2-4.3s9-5.1 14.5-8.3c5.5-3.2 12-6.9 14.5-8.3 2.5-1.4 7.8-4.4 11.7-6.8 4-2.4 7.5-4.4 7.7-4.4.2 0 6.2-3.4 13.2-7.6 7.1-4.2 14.5-8.5 16.4-9.5 1.9-1.1 6.2-3.5 9.5-5.5 3.3-1.9 7.2-4 8.8-4.7 1.5-.6 2.7-1.5 2.7-1.9 0-.4.6-.8 1.3-.8.7 0 2.7-1 4.4-2.3 1.7-1.2 5.7-3.6 8.9-5.2 3.3-1.7 6.1-3.3 6.4-3.6.3-.4 5.2-3.3 11-6.5s11.1-6.4 11.8-7.1c.7-.7 1.8-1.3 2.3-1.3.5 0 3.9-1.8 7.5-4s6.7-4 6.9-4c.4 0 34.9-20.1 36.1-21.1.6-.5 1.4-.6 1.7-.2.4.3.7.1.7-.5 0-.7.4-1.2.9-1.2s5.9-2.9 12-6.5c6-3.6 11.3-6.5 11.7-6.5.4 0 1.5-.6 2.3-1.4.9-.7 3.9-2.6 6.6-4.1 2.8-1.6 6.8-3.9 9-5.2 2.2-1.2 5.1-2.8 6.5-3.5 1.4-.7 2.7-1.5 3-1.8.5-.5 2.7-1.8 11.2-6.5 2-1.1 8.5-4.8 14.3-8.3 5.9-3.4 11.1-6.2 11.6-6.2s.9-.5.9-1c0-.6.4-1 .9-1 .6 0 7.9-4 16.3-8.8 33.8-19.5 55.5-32.1 59.3-34.2 14.1-7.9 20.2-11.5 21.7-12.8 1-.8 1.8-1.1 1.8-.6 0 .5.4.4.8-.1.4-.6 2.1-1.7 3.7-2.5 1.7-.8 3.2-1.8 3.5-2.1.3-.3 3.7-2.3 7.5-4.4 3.9-2 7.5-4.1 8-4.5.6-.4 2.8-1.8 5-3 7.7-4.4 13.3-7.6 34.6-19.8l21.4-12.3-.1-51.2c-.1-29.9-.5-51.1-1-51-.5.1-7 3.6-14.4 7.8-7.4 4.3-15.5 8.9-18 10.2-2.5 1.4-5.3 3.2-6.2 4.1-1 .8-1.8 1.2-1.8.8 0-.4-2 .7-4.4 2.3-2.4 1.7-4.6 2.7-5 2.4-.3-.4-.6-.1-.6.5 0 .7-.7 1.2-1.5 1.2s-1.5.4-1.5 1c0 .5-.5 1-1.1 1-.6 0-4.3 1.9-8.2 4.2-4 2.4-8.3 4.8-9.7 5.5-1.4.7-3.2 1.7-4 2.3-1.5 1-15.7 9.1-24 13.8-2.5 1.3-4.9 2.8-5.5 3.2-.5.4-3.5 2.1-6.5 3.7-4.8 2.7-48.8 27.9-56.2 32.2-5.6 3.3-44.5 25.5-48.4 27.6-2.2 1.3-5.8 3.4-8 4.7-2.1 1.4-4.6 2.7-5.4 3.1-.8.4-3.3 1.8-5.5 3.1-2.2 1.4-5.2 3.1-6.7 3.9-4.6 2.5-54.2 30.9-56.8 32.6-1.4.8-2.7 1.6-3 1.6-.3 0-2.3 1.2-4.5 2.6-2.2 1.3-5.3 3.1-7 3.9-1.6.8-3.2 1.8-3.5 2.1-.3.4-4.3 2.7-9 5.3-4.7 2.6-9.2 5.1-10 5.6-4.5 2.7-14.9 8.7-17.5 10-1.7.8-3.2 1.8-3.5 2.1-.3.3-3.4 2.1-7 4s-6.7 3.6-7 3.9c-.3.3-1.8 1.2-3.5 2-1.6.8-3.2 1.7-3.5 2-.3.3-1.5 1.1-2.8 1.8-1.2.7-11.4 6.5-22.5 12.9-11.1 6.3-22.2 12.7-24.6 14.1-2.5 1.4-6.7 3.8-9.3 5.3-2.7 1.6-5.3 2.9-5.8 2.9-.6 0-1 .4-1 .8s-1.2 1.3-2.7 1.9c-1.6.7-5 2.5-7.8 4.2-2.7 1.6-6.7 3.9-8.7 5-6.5 3.6-8.3 4.6-8.8 5.1-.3.3-2.4 1.5-4.7 2.8l-4.3 2.3v-264l-2.7-1.4c-2.7-1.3-8.2-4.3-18.3-9.9-2.5-1.4-7.2-4-10.5-5.8-9.4-5.2-16.6-9.1-21.5-11.9-8.2-4.5-20.4-11.2-24-12.9-1.9-.9-3.6-2-3.8-2.5-.2-.4-.8-.7-1.2-.7-.5 0-3.2-1.4-6-3-2.8-1.7-5.6-3-6.3-3-.9 0-1.3 47.7-1.5 213.8z"/></svg>